<?xml version="1.0" encoding="utf-8"?>
<!-- Generator: Adobe Illustrator 22.0.1, SVG Export Plug-In . SVG Version: 6.00 Build 0)  -->
<svg version="1.1" id="Layer_1" xmlns="http://www.w3.org/2000/svg" xmlns:xlink="http://www.w3.org/1999/xlink" x="0px" y="0px"
	 viewBox="0 0 290.9 120.1" style="enable-background:new 0 0 290.9 120.1;" xml:space="preserve">
<style type="text/css">
	.st0{fill:#1D1D1B;}
</style>
<title>Artboard 1</title>
<g>
	<path class="st0" d="M110.3,60.1c0,12.9-5,25.4-13.9,34.8L66.2,60.1l30.2-34.8C105.3,34.7,110.3,47.1,110.3,60.1 M59.7,9.5
		c12.2,0,23.9,4.4,33.1,12.4H26.6C35.8,13.9,47.6,9.5,59.7,9.5 M23.1,25.3l30.2,34.8L23.1,94.9C4.6,75.4,4.6,44.8,23.1,25.3
		 M59.7,52.7L41,31.1h37.5L59.7,52.7z M59.7,67.5L78.5,89H41L59.7,67.5z M59.7,110.6c-12.2,0-23.9-4.4-33.1-12.4h66.2
		C83.6,106.3,71.9,110.6,59.7,110.6 M119.5,60.1c0-33-26.8-59.7-59.7-59.7S0,27.1,0,60.1s26.8,59.7,59.7,59.7l0,0
		C92.7,119.8,119.5,93.1,119.5,60.1"/>
	<g>
		<path class="st0" d="M205.8,62.2c0,0.1,0,1.4,0.1,2.7c0.1,0.8,0.7,1.3,1.5,1.3c0.7-0.1,1.2-0.6,1.3-1.3c0.1-1.3,0.1-2.6,0.1-2.7
			c0-0.1,0-1.4-0.1-2.7c-0.1-0.8-0.7-1.3-1.5-1.3c-0.7,0.1-1.2,0.6-1.3,1.3C205.8,60.9,205.8,62.1,205.8,62.2 M193.7,60
			c0,0,0-2.5-1.7-2.5c-1.7,0-1.8,2-1.8,2.5c0,0.5,0.8,0.4,0.8,0.4h1.9C193.8,60.4,193.7,60,193.7,60 M225.5,60c0,0,0-2.5-1.7-2.5
			c-1.7,0-1.8,2-1.8,2.5c0,0.5,0.8,0.4,0.8,0.4h1.9C225.6,60.4,225.5,60,225.5,60 M264.2,62.2c0-0.1,0-1.4-0.1-2.7
			c-0.1-0.8-0.7-1.3-1.5-1.3c-0.7,0.1-1.2,0.6-1.3,1.3c-0.1,1.3-0.1,2.6-0.1,2.7c0,0.1,0,1.5,0.1,2.8c0,0.6,0.4,1.1,0.9,1.2
			c0.1,0.1,0.3,0.1,0.5,0.1c0.1,0,0.3,0,0.4-0.1c0.6-0.1,1-0.7,1-1.3C264.2,63.8,264.1,62.3,264.2,62.2 M284.8,57.6v13.7
			c0,0,0,0.6-0.9,0.6h-3.3c-1,0-0.9-0.6-0.9-0.6V59.6c0,0,0.1-1.3-0.9-1.3c-0.8-0.1-1.5,0.5-1.6,1.3v11.7c0,0,0,0.6-0.9,0.6h-3.6
			c-1,0-0.9-0.6-0.9-0.6V53.4c0-0.5,0.7-0.5,0.7-0.5h4.1c0,0,0.7-0.1,0.7,0.5v1.4c0.3,0,0.6-0.1,0.9-0.3c0.4-0.3,1.6-2.1,3.4-2.1
			C285.2,52.5,284.8,57.6,284.8,57.6 M270,62.5L270,62.5c0,9.5-5.8,9.7-6.8,9.7h-0.5h-0.5c-1,0-6.8-0.9-6.8-9.7l0,0
			c0-10.2,6.5-10,7.1-10h0.3C263.5,52.5,270,52.3,270,62.5L270,62.5 M254,47.7c0,1.8-1.4,3.3-3.2,3.4c-1.8,0-3.3-1.4-3.4-3.2
			c0-1.8,1.4-3.3,3.2-3.4c0,0,0.1,0,0.1,0C252.5,44.5,254,45.9,254,47.7C254,47.7,254,47.7,254,47.7 M248,53.4
			c0-0.5,0.7-0.5,0.7-0.5h4.1c0,0,0.7-0.1,0.7,0.5v17.9c0,0,0,0.6-0.9,0.6h-3.6c-1,0-0.9-0.6-0.9-0.6L248,53.4L248,53.4z
			 M230.5,63.9c-0.2,0.6-1.1,0.5-1.1,0.5h-7.5c0,1.5,0.1,3.2,1.8,3.2c0.8,0.1,1.5-0.5,1.6-1.2c0.1-0.5,0.8-0.4,0.8-0.4h3.2
			c0.7,0,0.7,0.5,0.7,0.5s0.4,5.9-6.5,5.9c-6.9,0-7.2-8.5-7.2-8.5s-1.3-11.3,7.2-11.3S230.8,63.2,230.5,63.9 M198.8,63.9
			c-0.2,0.6-1.1,0.5-1.1,0.5h-7.5c0,1.5,0.1,3.2,1.8,3.2c0.8,0.1,1.5-0.5,1.6-1.2c0.1-0.5,0.8-0.4,0.8-0.4h3.2
			c0.7,0,0.7,0.5,0.7,0.5s0.3,5.9-6.5,5.9s-7.3-8.5-7.3-8.5s-1.3-11.3,7.1-11.3S198.9,63.2,198.8,63.9 M183.5,58.1
			c0,0,0,0.5-0.4,0.5c-0.4,0-4.2-0.3-4.2,2.6v10.2c0,0,0,0.6-0.9,0.6h-3.6c-1,0-0.9-0.6-0.9-0.6V53.4c0-0.5,0.7-0.5,0.7-0.5h4.1
			c0,0,0.7,0,0.7,0.5v1.4c0.4,0,0.8-0.2,1.1-0.6c0.7-1,1.8-1.7,3.1-1.8c0.3,0,0.4,0.2,0.4,0.5L183.5,58.1z M290.9,77.2V35.9
			l-45.6,4.9v30.5c0,0,0,0.6-0.9,0.6h-3.6c-1,0-0.9-0.6-0.9-0.6V41.4l-1.9,0.2v29.7c0,0,0,0.6-0.9,0.6h-3.6c-1,0-0.9-0.6-0.9-0.6
			V42.2l-26.6,2.9v9.8c0.4,0,0.8-0.2,1.1-0.5c0.6-0.7,1.8-1.8,3.1-1.8c1.3,0,4.8,1,4.8,9.2s-3.3,10.6-4.8,10.6
			c-1,0.1-1.9-0.2-2.7-0.8c-1.1-1-1.1-1.1-1.3-1c-0.1,0-0.2,0.1-0.2,0.2v0.8c0,0,0,0.6-0.9,0.6h-3.6c-1,0-0.9-0.6-0.9-0.6V45.7
			l-60.6,6.5v24.9L290.9,77.2z"/>
		<path class="st0" d="M249.5,25.5v10.7l2.4-0.3V25.5c0,0,0.1-1.3-0.9-1.3C250.3,24.2,249.6,24.7,249.5,25.5 M233.8,28.2
			c0,0.1,0,1.5,0.1,2.8c0,0.6,0.3,1.1,0.9,1.2c0.1,0.1,0.3,0.1,0.5,0.1c0.1,0,0.2,0,0.4,0c0.6-0.1,1-0.7,1-1.3
			c0.1-1.3,0.1-2.8,0.1-2.8s0-1.4-0.1-2.7c0-0.8-0.6-1.4-1.4-1.4c-0.8,0-1.4,0.6-1.4,1.4C233.8,26.8,233.8,28.1,233.8,28.2
			 M143.9,26c0,0,0-2.5-1.7-2.5c-1.7,0-1.8,2.1-1.8,2.5s0.8,0.4,0.8,0.4h1.9C144,26.4,143.9,26,143.9,26 M226.9,13.7
			c0,1.8-1.4,3.3-3.2,3.4c-1.8,0-3.3-1.4-3.4-3.2c0-1.8,1.4-3.3,3.2-3.4c0,0,0.1,0,0.1,0C225.4,10.4,226.9,11.9,226.9,13.7
			C226.9,13.7,226.9,13.7,226.9,13.7 M219.6,23c0,0.3-0.2,0.6-0.5,0.6c0,0-0.1,0-0.1,0h-1.2v13.7c0,0,0,0.6-0.9,0.6h-3.6
			c-1,0-0.9-0.6-0.9-0.6V23.6h-1.2c-0.3,0-0.6-0.2-0.6-0.5c0,0,0-0.1,0-0.1v-3.5c0-0.3,0.2-0.5,0.5-0.6c0,0,0,0,0,0h1.2v-4.7
			c0-0.5,0.7-0.5,0.7-0.5h4.1c0,0,0.7,0,0.7,0.5v4.7h1.2c0.3,0,0.5,0.2,0.5,0.5c0,0,0,0,0,0L219.6,23z M208.9,36.1
			c0,0.3-0.1,0.6-0.2,0.8c-0.6,1.1-2.7,1.2-3.2,1.2c-1,0-6.8,0.4-6.8-9.8l0,0c0-10.2,6.5-10,7.1-10c0.8,0,1.5,0.2,2.2,0.6
			c0.3,0.2,0.5,0.5,0.7,0.8c0.1,0.3,0.2,0.6,0.2,0.8v3.1c0,0.6-0.4,0.4-0.4,0.4c-0.4-0.2-0.8-0.3-1.2-0.4c-2.4,0-2.4,4.4-2.4,4.6
			l0,0c0,0.1,0,4.6,2.4,4.6c0.4,0,0.9-0.2,1.2-0.4c0,0,0.4-0.2,0.4,0.4L208.9,36.1z M197.3,23.6v13.7c0,0,0,0.6-0.9,0.6h-3.3
			c-1,0-0.9-0.6-0.9-0.6V25.5c0,0,0.1-1.3-0.9-1.3c-0.8-0.1-1.5,0.5-1.6,1.3v11.8c0,0,0,0.6-0.9,0.6h-3.6c-1,0-0.9-0.6-0.9-0.6V19.4
			c0-0.5,0.7-0.5,0.7-0.5h4.1c0,0,0.7-0.1,0.7,0.5v1.4c0.3,0,0.6-0.1,0.9-0.3c0.3-0.2,1.6-2.1,3.4-2.1
			C197.7,18.5,197.3,23.6,197.3,23.6 M182.8,13.7c0,1.8-1.4,3.3-3.2,3.4c-1.8,0-3.3-1.4-3.4-3.2s1.4-3.3,3.2-3.4c0,0,0,0,0,0
			C181.3,10.4,182.8,11.9,182.8,13.7 M174.7,23c0,0.3-0.2,0.6-0.5,0.6c0,0,0,0-0.1,0h-1.2v13.7c0,0,0,0.6-0.9,0.6h-3.6
			c-1,0-0.9-0.6-0.9-0.6V23.6h-1.2c-0.3,0-0.6-0.2-0.6-0.5c0,0,0,0,0-0.1v-3.5c0-0.3,0.2-0.5,0.5-0.6c0,0,0,0,0,0h1.3v-4.7
			c0-0.5,0.7-0.5,0.7-0.5h4.1c0,0,0.7,0,0.7,0.5v4.7h1.2c0.3,0,0.5,0.2,0.6,0.5c0,0,0,0,0,0L174.7,23z M164.6,37.9h-4.9
			c-0.4,0-0.7-0.2-0.8-0.5c-0.3-0.5-1.7-3.7-1.7-3.7c-0.1-0.2-0.2-0.3-0.4-0.3c-0.2,0-0.3,0.1-0.4,0.3c0,0-1.5,3.2-1.7,3.7
			c-0.2,0.3-0.5,0.5-0.8,0.5h-4.9c-0.5,0,0-0.9,0-0.9s4.8-8,5-8.4c0.1-0.2,0.1-0.5,0-0.8l-4.7-8.4c-0.4-0.7,0.7-0.5,0.7-0.5h4.4
			c0.4-0.1,0.8,0.1,1,0.5c0,0,1.1,2.6,1.3,2.9c0.2,0.4,0.3,0.4,0.3,0.4s0.1,0.1,0.3-0.4s1.3-2.9,1.3-2.9c0.2-0.4,0.6-0.6,1-0.5h4.4
			c0,0,1-0.1,0.6,0.5l-4.7,8.4c-0.1,0.2-0.1,0.5,0,0.8c0.2,0.4,5,8.4,5,8.4s0.5,0.9,0,0.9 M149.1,29.9c-0.2,0.6-1.1,0.5-1.1,0.5
			h-7.5c0,1.5,0.1,3.2,1.8,3.2c0.8,0.1,1.5-0.5,1.6-1.2c0.1-0.5,0.8-0.4,0.8-0.4h3.2c0.7,0,0.7,0.5,0.7,0.5s0.4,5.9-6.5,5.9
			c-6.9,0-7.2-8.5-7.2-8.5s-1.3-11.3,7.2-11.3S149.3,29.2,149.1,29.9 M176.8,19.4c0-0.5,0.7-0.5,0.7-0.5h4.1c0,0,0.7-0.1,0.7,0.5
			v17.9c0,0,0,0.6-0.9,0.6h-3.6c-1,0-0.9-0.6-0.9-0.6L176.8,19.4L176.8,19.4z M220.9,19.4c0-0.5,0.7-0.5,0.7-0.5h4.1
			c0,0,0.7-0.1,0.7,0.5v17.9c0,0,0,0.6-0.9,0.6h-3.6c-1,0-0.9-0.6-0.9-0.6L220.9,19.4L220.9,19.4z M278.6,33.1V8.1H127.6v41.2
			l105.9-11.4c-2-0.5-5.6-2.6-5.6-9.5l0,0c0-10.2,6.5-10,7.1-10h0.3c0.7,0,7.1-0.2,7.1,10l0,0c0,5.6-2,7.9-3.8,9l5.3-0.6V19.4
			c0-0.5,0.7-0.5,0.7-0.5h4.1c0,0,0.7-0.1,0.7,0.5v1.4c0.3,0,0.6-0.1,0.9-0.3c0.3-0.2,1.6-2.1,3.4-2.1c3.8,0,3.4,5.1,3.4,5.1v11.8
			L278.6,33.1z"/>
		<g>
			<path class="st0" d="M238,80.5c0.1,0.1,0.1,0.2,0.2,0.3l2.7,11.5c1.3,5.8,2.8,11.5,2.8,11.5c0.2,1-0.9,0.9-0.9,0.9h-4.3
				c-0.4,0-0.7-0.3-0.8-0.6l-0.5-2.6c-0.1-0.3-0.3-0.4-0.6-0.4h-3.9c-0.3,0-0.5,0.2-0.6,0.4l-0.5,2.6c-0.1,0.4-0.4,0.6-0.8,0.6h-4.3
				c0,0-1.1,0.1-0.9-0.9c0,0,1.4-5.7,2.8-11.5c1.3-5.5,2.6-11.1,2.7-11.5c0-0.1,0.1-0.2,0.2-0.3h-7.7c0,0,0,0.1,0,0.1
				c0,0.3-0.1,9.7-0.1,11.8s0.1,11.4,0.1,11.7c0,0.7-0.8,0.7-0.8,0.7h-4c0,0-0.8,0-0.8-0.7c0-0.3,0.1-9.9,0.1-11.7
				s-0.1-11.4-0.1-11.8c0,0,0-0.1,0-0.1h-7.4c0,0,0,0.1,0,0.1v11.8c0,0.7,0,5.9,0,6.4c0,0.6,0.5,0.6,0.5,0.6h3.8c0,0,0.7,0,0.7,0.5
				v4.2c0,0.6-0.7,0.6-0.7,0.6h-9.3c-0.3,0-0.6-0.3-0.6-0.6c0,0,0,0,0,0c0-0.3,0.1-9.8,0.1-11.8c0-2-0.1-11.4-0.1-11.8
				c0,0,0-0.1,0-0.1h-8.1c0.1,0.1,0.1,0.2,0.1,0.3l2.7,11.5c1.3,5.8,2.8,11.5,2.8,11.5c0.2,1-0.9,0.9-0.9,0.9h-4.3
				c-0.4,0-0.7-0.3-0.8-0.6l-0.5-2.6c-0.1-0.3-0.3-0.4-0.6-0.4h-3.8c-0.3,0-0.5,0.2-0.6,0.4l-0.5,2.6c-0.1,0.4-0.4,0.6-0.8,0.6h-4.3
				c0,0-1.1,0.1-0.9-0.9c0,0,1.4-5.7,2.8-11.5c1.3-5.5,2.6-11.1,2.7-11.5c0-0.1,0.1-0.2,0.2-0.3h-5.6c0,0,0,0.1,0,0.1v4
				c0,0.3-0.3,0.6-0.6,0.6c0,0-0.1,0-0.1,0h-2.6c0,0-0.3,0-0.3,0.2c0,0.2-0.1,3.2-0.1,6.9c0,4.5,0.1,10,0.1,11.8
				c0,0.3-0.2,0.6-0.6,0.6c0,0,0,0,0,0h-4.4c-0.3,0-0.6-0.3-0.6-0.6c0,0,0,0,0,0c0-0.4,0.1-6.6,0.1-11.8c0-3.7-0.1-6.8-0.1-6.9
				c0-0.3-0.3-0.2-0.3-0.2h-2.7c-0.3,0-0.6-0.3-0.6-0.6c0,0,0,0,0,0v-4c0,0,0-0.1,0-0.1h-2.5c0,0,0,0.1,0,0.1
				c0,0.3-0.1,9.7-0.1,11.8s0.1,11.4,0.1,11.7c0,0.7-0.8,0.7-0.8,0.7h-4c0,0-0.8,0-0.8-0.7c0-0.3,0.1-9.9,0.1-11.7
				s-0.1-11.4-0.1-11.8c0,0,0-0.1,0-0.1h-35.9v29.1h151.1V80.5H238z"/>
			<path class="st0" d="M234.6,85.2l-1.5,11c-0.1,0.7,0.5,0.7,0.5,0.7h2.1c0,0,0.6,0.1,0.5-0.7L234.6,85.2L234.6,85.2L234.6,85.2z"
				/>
			<path class="st0" d="M193.4,85.2l-1.5,11c-0.1,0.7,0.5,0.7,0.5,0.7h2.1c0,0,0.6,0.1,0.5-0.7L193.4,85.2L193.4,85.2L193.4,85.2z"
				/>
		</g>
	</g>
</g>
</svg>
