<?xml version="1.0" encoding="UTF-8" standalone="no"?>
<!-- Generator: Adobe Illustrator 22.0.1, SVG Export Plug-In . SVG Version: 6.00 Build 0)  -->

<svg
   xmlns:dc="http://purl.org/dc/elements/1.1/"
   xmlns:cc="http://creativecommons.org/ns#"
   xmlns:rdf="http://www.w3.org/1999/02/22-rdf-syntax-ns#"
   xmlns:svg="http://www.w3.org/2000/svg"
   xmlns="http://www.w3.org/2000/svg"
   xmlns:sodipodi="http://sodipodi.sourceforge.net/DTD/sodipodi-0.dtd"
   xmlns:inkscape="http://www.inkscape.org/namespaces/inkscape"
   version="1.1"
   id="Layer_1"
   x="0px"
   y="0px"
   viewBox="0 0 290.9 120.1"
   style="enable-background:new 0 0 290.9 120.1;"
   xml:space="preserve"
   sodipodi:docname="xr-logo-BO-linear.svg"
   inkscape:version="0.92.4 (5da689c313, 2019-01-14)"><metadata
   id="metadata66"><rdf:RDF><cc:Work
       rdf:about=""><dc:format>image/svg+xml</dc:format><dc:type
         rdf:resource="http://purl.org/dc/dcmitype/StillImage" /><dc:title>Artboard 1</dc:title></cc:Work></rdf:RDF></metadata><defs
   id="defs64" /><sodipodi:namedview
   pagecolor="#ffffff"
   bordercolor="#666666"
   borderopacity="1"
   objecttolerance="10"
   gridtolerance="10"
   guidetolerance="10"
   inkscape:pageopacity="0"
   inkscape:pageshadow="2"
   inkscape:window-width="3240"
   inkscape:window-height="2055"
   id="namedview62"
   showgrid="false"
   inkscape:zoom="7.5110348"
   inkscape:cx="203.59312"
   inkscape:cy="42.662046"
   inkscape:window-x="-13"
   inkscape:window-y="-13"
   inkscape:window-maximized="1"
   inkscape:current-layer="g57" />
<style
   type="text/css"
   id="style39">
	.st0{fill:#1D1D1B;}
</style>
<title
   id="title41">Artboard 1</title>
<g
   id="g59">
	<path
   class="st0"
   d="M110.3,60.1c0,12.9-5,25.4-13.9,34.8L66.2,60.1l30.2-34.8C105.3,34.7,110.3,47.1,110.3,60.1 M59.7,9.5   c12.2,0,23.9,4.4,33.1,12.4H26.6C35.8,13.9,47.6,9.5,59.7,9.5 M23.1,25.3l30.2,34.8L23.1,94.9C4.6,75.4,4.6,44.8,23.1,25.3    M59.7,52.7L41,31.1h37.5L59.7,52.7z M59.7,67.5L78.5,89H41L59.7,67.5z M59.7,110.6c-12.2,0-23.9-4.4-33.1-12.4h66.2   C83.6,106.3,71.9,110.6,59.7,110.6 M119.5,60.1c0-33-26.8-59.7-59.7-59.7S0,27.1,0,60.1s26.8,59.7,59.7,59.7l0,0   C92.7,119.8,119.5,93.1,119.5,60.1"
   id="path43" />
	<g
   id="g57">
		<path
   class="st0"
   d="M205.8,62.2c0,0.1,0,1.4,0.1,2.7c0.1,0.8,0.7,1.3,1.5,1.3c0.7-0.1,1.2-0.6,1.3-1.3c0.1-1.3,0.1-2.6,0.1-2.7    c0-0.1,0-1.4-0.1-2.7c-0.1-0.8-0.7-1.3-1.5-1.3c-0.7,0.1-1.2,0.6-1.3,1.3C205.8,60.9,205.8,62.1,205.8,62.2 M193.7,60    c0,0,0-2.5-1.7-2.5c-1.7,0-1.8,2-1.8,2.5c0,0.5,0.8,0.4,0.8,0.4h1.9C193.8,60.4,193.7,60,193.7,60 M225.5,60c0,0,0-2.5-1.7-2.5    c-1.7,0-1.8,2-1.8,2.5c0,0.5,0.8,0.4,0.8,0.4h1.9C225.6,60.4,225.5,60,225.5,60 M264.2,62.2c0-0.1,0-1.4-0.1-2.7    c-0.1-0.8-0.7-1.3-1.5-1.3c-0.7,0.1-1.2,0.6-1.3,1.3c-0.1,1.3-0.1,2.6-0.1,2.7c0,0.1,0,1.5,0.1,2.8c0,0.6,0.4,1.1,0.9,1.2    c0.1,0.1,0.3,0.1,0.5,0.1c0.1,0,0.3,0,0.4-0.1c0.6-0.1,1-0.7,1-1.3C264.2,63.8,264.1,62.3,264.2,62.2 M284.8,57.6v13.7    c0,0,0,0.6-0.9,0.6h-3.3c-1,0-0.9-0.6-0.9-0.6V59.6c0,0,0.1-1.3-0.9-1.3c-0.8-0.1-1.5,0.5-1.6,1.3v11.7c0,0,0,0.6-0.9,0.6h-3.6    c-1,0-0.9-0.6-0.9-0.6V53.4c0-0.5,0.7-0.5,0.7-0.5h4.1c0,0,0.7-0.1,0.7,0.5v1.4c0.3,0,0.6-0.1,0.9-0.3c0.4-0.3,1.6-2.1,3.4-2.1    C285.2,52.5,284.8,57.6,284.8,57.6 M270,62.5L270,62.5c0,9.5-5.8,9.7-6.8,9.7h-0.5h-0.5c-1,0-6.8-0.9-6.8-9.7l0,0    c0-10.2,6.5-10,7.1-10h0.3C263.5,52.5,270,52.3,270,62.5L270,62.5 M254,47.7c0,1.8-1.4,3.3-3.2,3.4c-1.8,0-3.3-1.4-3.4-3.2    c0-1.8,1.4-3.3,3.2-3.4c0,0,0.1,0,0.1,0C252.5,44.5,254,45.9,254,47.7C254,47.7,254,47.7,254,47.7 M248,53.4    c0-0.5,0.7-0.5,0.7-0.5h4.1c0,0,0.7-0.1,0.7,0.5v17.9c0,0,0,0.6-0.9,0.6h-3.6c-1,0-0.9-0.6-0.9-0.6L248,53.4L248,53.4z     M230.5,63.9c-0.2,0.6-1.1,0.5-1.1,0.5h-7.5c0,1.5,0.1,3.2,1.8,3.2c0.8,0.1,1.5-0.5,1.6-1.2c0.1-0.5,0.8-0.4,0.8-0.4h3.2    c0.7,0,0.7,0.5,0.7,0.5s0.4,5.9-6.5,5.9c-6.9,0-7.2-8.5-7.2-8.5s-1.3-11.3,7.2-11.3S230.8,63.2,230.5,63.9 M198.8,63.9    c-0.2,0.6-1.1,0.5-1.1,0.5h-7.5c0,1.5,0.1,3.2,1.8,3.2c0.8,0.1,1.5-0.5,1.6-1.2c0.1-0.5,0.8-0.4,0.8-0.4h3.2    c0.7,0,0.7,0.5,0.7,0.5s0.3,5.9-6.5,5.9s-7.3-8.5-7.3-8.5s-1.3-11.3,7.1-11.3S198.9,63.2,198.8,63.9 M183.5,58.1    c0,0,0,0.5-0.4,0.5c-0.4,0-4.2-0.3-4.2,2.6v10.2c0,0,0,0.6-0.9,0.6h-3.6c-1,0-0.9-0.6-0.9-0.6V53.4c0-0.5,0.7-0.5,0.7-0.5h4.1    c0,0,0.7,0,0.7,0.5v1.4c0.4,0,0.8-0.2,1.1-0.6c0.7-1,1.8-1.7,3.1-1.8c0.3,0,0.4,0.2,0.4,0.5L183.5,58.1z M290.9,77.2V35.9    l-45.6,4.9v30.5c0,0,0,0.6-0.9,0.6h-3.6c-1,0-0.9-0.6-0.9-0.6V41.4l-1.9,0.2v29.7c0,0,0,0.6-0.9,0.6h-3.6c-1,0-0.9-0.6-0.9-0.6    V42.2l-26.6,2.9v9.8c0.4,0,0.8-0.2,1.1-0.5c0.6-0.7,1.8-1.8,3.1-1.8c1.3,0,4.8,1,4.8,9.2s-3.3,10.6-4.8,10.6    c-1,0.1-1.9-0.2-2.7-0.8c-1.1-1-1.1-1.1-1.3-1c-0.1,0-0.2,0.1-0.2,0.2v0.8c0,0,0,0.6-0.9,0.6h-3.6c-1,0-0.9-0.6-0.9-0.6V45.7    l-60.6,6.5v24.9L290.9,77.2z"
   id="path45" />
		<path
   class="st0"
   d="M249.5,25.5v10.7l2.4-0.3V25.5c0,0,0.1-1.3-0.9-1.3C250.3,24.2,249.6,24.7,249.5,25.5 M233.8,28.2    c0,0.1,0,1.5,0.1,2.8c0,0.6,0.3,1.1,0.9,1.2c0.1,0.1,0.3,0.1,0.5,0.1c0.1,0,0.2,0,0.4,0c0.6-0.1,1-0.7,1-1.3    c0.1-1.3,0.1-2.8,0.1-2.8s0-1.4-0.1-2.7c0-0.8-0.6-1.4-1.4-1.4c-0.8,0-1.4,0.6-1.4,1.4C233.8,26.8,233.8,28.1,233.8,28.2     M143.9,26c0,0,0-2.5-1.7-2.5c-1.7,0-1.8,2.1-1.8,2.5s0.8,0.4,0.8,0.4h1.9C144,26.4,143.9,26,143.9,26 M226.9,13.7    c0,1.8-1.4,3.3-3.2,3.4c-1.8,0-3.3-1.4-3.4-3.2c0-1.8,1.4-3.3,3.2-3.4c0,0,0.1,0,0.1,0C225.4,10.4,226.9,11.9,226.9,13.7    C226.9,13.7,226.9,13.7,226.9,13.7 M219.6,23c0,0.3-0.2,0.6-0.5,0.6c0,0-0.1,0-0.1,0h-1.2v13.7c0,0,0,0.6-0.9,0.6h-3.6    c-1,0-0.9-0.6-0.9-0.6V23.6h-1.2c-0.3,0-0.6-0.2-0.6-0.5c0,0,0-0.1,0-0.1v-3.5c0-0.3,0.2-0.5,0.5-0.6c0,0,0,0,0,0h1.2v-4.7    c0-0.5,0.7-0.5,0.7-0.5h4.1c0,0,0.7,0,0.7,0.5v4.7h1.2c0.3,0,0.5,0.2,0.5,0.5c0,0,0,0,0,0L219.6,23z M208.9,36.1    c0,0.3-0.1,0.6-0.2,0.8c-0.6,1.1-2.7,1.2-3.2,1.2c-1,0-6.8,0.4-6.8-9.8l0,0c0-10.2,6.5-10,7.1-10c0.8,0,1.5,0.2,2.2,0.6    c0.3,0.2,0.5,0.5,0.7,0.8c0.1,0.3,0.2,0.6,0.2,0.8v3.1c0,0.6-0.4,0.4-0.4,0.4c-0.4-0.2-0.8-0.3-1.2-0.4c-2.4,0-2.4,4.4-2.4,4.6    l0,0c0,0.1,0,4.6,2.4,4.6c0.4,0,0.9-0.2,1.2-0.4c0,0,0.4-0.2,0.4,0.4L208.9,36.1z M197.3,23.6v13.7c0,0,0,0.6-0.9,0.6h-3.3    c-1,0-0.9-0.6-0.9-0.6V25.5c0,0,0.1-1.3-0.9-1.3c-0.8-0.1-1.5,0.5-1.6,1.3v11.8c0,0,0,0.6-0.9,0.6h-3.6c-1,0-0.9-0.6-0.9-0.6V19.4    c0-0.5,0.7-0.5,0.7-0.5h4.1c0,0,0.7-0.1,0.7,0.5v1.4c0.3,0,0.6-0.1,0.9-0.3c0.3-0.2,1.6-2.1,3.4-2.1    C197.7,18.5,197.3,23.6,197.3,23.6 M182.8,13.7c0,1.8-1.4,3.3-3.2,3.4c-1.8,0-3.3-1.4-3.4-3.2s1.4-3.3,3.2-3.4c0,0,0,0,0,0    C181.3,10.4,182.8,11.9,182.8,13.7 M174.7,23c0,0.3-0.2,0.6-0.5,0.6c0,0,0,0-0.1,0h-1.2v13.7c0,0,0,0.6-0.9,0.6h-3.6    c-1,0-0.9-0.6-0.9-0.6V23.6h-1.2c-0.3,0-0.6-0.2-0.6-0.5c0,0,0,0,0-0.1v-3.5c0-0.3,0.2-0.5,0.5-0.6c0,0,0,0,0,0h1.3v-4.7    c0-0.5,0.7-0.5,0.7-0.5h4.1c0,0,0.7,0,0.7,0.5v4.7h1.2c0.3,0,0.5,0.2,0.6,0.5c0,0,0,0,0,0L174.7,23z M164.6,37.9h-4.9    c-0.4,0-0.7-0.2-0.8-0.5c-0.3-0.5-1.7-3.7-1.7-3.7c-0.1-0.2-0.2-0.3-0.4-0.3c-0.2,0-0.3,0.1-0.4,0.3c0,0-1.5,3.2-1.7,3.7    c-0.2,0.3-0.5,0.5-0.8,0.5h-4.9c-0.5,0,0-0.9,0-0.9s4.8-8,5-8.4c0.1-0.2,0.1-0.5,0-0.8l-4.7-8.4c-0.4-0.7,0.7-0.5,0.7-0.5h4.4    c0.4-0.1,0.8,0.1,1,0.5c0,0,1.1,2.6,1.3,2.9c0.2,0.4,0.3,0.4,0.3,0.4s0.1,0.1,0.3-0.4s1.3-2.9,1.3-2.9c0.2-0.4,0.6-0.6,1-0.5h4.4    c0,0,1-0.1,0.6,0.5l-4.7,8.4c-0.1,0.2-0.1,0.5,0,0.8c0.2,0.4,5,8.4,5,8.4s0.5,0.9,0,0.9 M149.1,29.9c-0.2,0.6-1.1,0.5-1.1,0.5    h-7.5c0,1.5,0.1,3.2,1.8,3.2c0.8,0.1,1.5-0.5,1.6-1.2c0.1-0.5,0.8-0.4,0.8-0.4h3.2c0.7,0,0.7,0.5,0.7,0.5s0.4,5.9-6.5,5.9    c-6.9,0-7.2-8.5-7.2-8.5s-1.3-11.3,7.2-11.3S149.3,29.2,149.1,29.9 M176.8,19.4c0-0.5,0.7-0.5,0.7-0.5h4.1c0,0,0.7-0.1,0.7,0.5    v17.9c0,0,0,0.6-0.9,0.6h-3.6c-1,0-0.9-0.6-0.9-0.6L176.8,19.4L176.8,19.4z M220.9,19.4c0-0.5,0.7-0.5,0.7-0.5h4.1    c0,0,0.7-0.1,0.7,0.5v17.9c0,0,0,0.6-0.9,0.6h-3.6c-1,0-0.9-0.6-0.9-0.6L220.9,19.4L220.9,19.4z M278.6,33.1V8.1H127.6v41.2    l105.9-11.4c-2-0.5-5.6-2.6-5.6-9.5l0,0c0-10.2,6.5-10,7.1-10h0.3c0.7,0,7.1-0.2,7.1,10l0,0c0,5.6-2,7.9-3.8,9l5.3-0.6V19.4    c0-0.5,0.7-0.5,0.7-0.5h4.1c0,0,0.7-0.1,0.7,0.5v1.4c0.3,0,0.6-0.1,0.9-0.3c0.3-0.2,1.6-2.1,3.4-2.1c3.8,0,3.4,5.1,3.4,5.1v11.8    L278.6,33.1z"
   id="path47" />
		<g
   id="g55"
   style="fill:#1d1d1b">
			
			
			
		<path
   d="M 134.33495,80.159507 V 112.51106 H 280.65331 V 80.159507 Z m 36.97266,3.460938 c 6.592,0 9.15234,6.368328 9.15234,12.736328 0,6.335997 -2.56034,12.705067 -9.15234,12.705067 -6.592,0 -9.15235,-6.36907 -9.15235,-12.705067 0,-6.368 2.56035,-12.736328 9.15235,-12.736328 z m 31.5625,0 c 6.592,0 9.15234,6.368328 9.15234,12.736328 0,6.335997 -2.56034,12.705067 -9.15234,12.705067 -6.592,0 -9.15235,-6.36907 -9.15235,-12.705067 0,-6.368 2.56035,-12.736328 9.15235,-12.736328 z m 19.57812,0 c 3.648,0 6.784,2.240375 8,5.984375 0.096,0.224 0.22505,0.672781 -0.12695,0.800781 0,0 -1.34544,0.383875 -2.27344,0.671875 -0.96,0.288 -2.30273,0.736328 -2.30273,0.736328 -0.32,0.128 -0.41647,-0.321219 -0.48047,-0.449219 -0.64,-2.016 -1.3115,-2.783203 -2.6875,-2.783203 -2.112,0 -3.13672,3.360594 -3.13672,7.808594 0,5.311994 1.47287,7.390624 3.29687,7.390624 1.568,0 2.94352,-1.47171 3.10352,-4.095707 0,-0.32 -0.32031,-0.32031 -0.32031,-0.32031 h -2.78321 c 0,0 -0.48046,0.0324 -0.48046,-0.35156 v -4.160156 c 0,-0.448 0.51171,-0.416016 0.51171,-0.416016 0,0 3.39246,0.06445 4.06446,0.06445 0.672,0 4.03125,-0.06445 4.03125,-0.06445 0.256,0 0.41526,-0.03197 0.44726,0.832031 0.192,5.695998 -1.08772,13.792958 -8.51172,13.792958 -6.4,0 -8.83203,-5.98492 -8.83203,-12.544911 0,-6.336 1.92047,-12.896484 8.48047,-12.896484 z m -75.55469,0.705078 c 0.108,-0.0085 0.17969,0 0.17969,0 h 6.43164 c 4.864,0 5.98438,3.295328 5.98438,6.111328 0,3.424 -2.20753,4.512938 -3.51953,4.960937 -0.32,0.096 0,0.160157 0,0.160157 2.272,0.608 4.41601,2.591328 4.41601,6.111325 0,6.688 -6.43347,6.7207 -7.10547,6.7207 h -6.20703 c 0,0 -1.15234,0.0637 -1.15234,-1.15234 0,-0.576 0.0957,-6.33735 0.0957,-11.777342 0,-4.8 -0.0957,-9.343171 -0.0957,-9.951171 0,-0.984 0.64865,-1.158094 0.97265,-1.183594 z m 36.41602,0 h 4.32031 c 0,0 0.57617,-0.03258 0.57617,0.607422 l -0.0332,11.423828 c 0,0.704 0.0332,5.760977 0.0332,6.208977 0,0.64 0.51172,0.60742 0.51172,0.60742 h 3.67969 c 0,0 0.64063,-2.8e-4 0.64063,0.51172 v 1.98438 2.11133 c 0,0.608 -0.67188,0.60937 -0.67188,0.60937 h -9.02539 c 0,0 -0.60742,-0.001 -0.60742,-0.60937 0,-0.32001 0.0957,-9.471827 0.0957,-11.423827 0,-1.952 -0.0957,-11.103828 -0.0957,-11.423828 0,-0.64 0.57617,-0.607422 0.57617,-0.607422 z m 51.06055,0 h 4.57617 c 0,0 0.57603,-0.03258 0.83203,0.607422 0.128,0.32 1.88869,4.832828 2.30469,6.048828 0.448,1.184 2.43164,5.982422 2.43164,5.982422 0,0 0.0325,-4.927625 0.0645,-6.015625 -0.032,-1.056 -0.0645,-5.759625 -0.0645,-6.015625 0,-0.608 0.67187,-0.607422 0.67187,-0.607422 h 3.96875 c 0,0 0.70313,-0.03258 0.70313,0.607422 0,0.32 -0.0957,10.175828 -0.0957,11.423828 0,1.248 0.0957,11.104577 0.0957,11.392567 0,0.64 -0.60742,0.64063 -0.60742,0.64063 h -4.28907 c 0,0 -0.79943,-6.2e-4 -1.02343,-0.64063 -0.128,-0.28799 -2.62469,-6.94528 -2.30469,-6.11328 l -2.43164,-6.142568 c 0,0 -0.0645,3.998581 -0.0645,6.142568 1e-5,2.144 0.0645,5.82529 0.0645,6.11328 0,0.64 -0.73633,0.64063 -0.73633,0.64063 h -3.9668 c 0,0 -0.64062,-6.2e-4 -0.64062,-0.64063 0,-0.288 0.0957,-10.208567 0.0957,-11.392567 0,-1.184 -0.0957,-11.103828 -0.0957,-11.423828 0,-0.64 0.51172,-0.607422 0.51172,-0.607422 z m 24.05859,0 h 4.41602 c 0,0 1.02479,-0.03197 1.21679,0.832031 l 2.5918,11.199219 c 1.312,5.599997 2.7207,11.136717 2.7207,11.136717 0.224,0.96 -0.86523,0.89648 -0.86523,0.89648 h -4.16016 c -0.672,0 -0.76758,-0.60937 -0.76758,-0.60937 l -0.51171,-2.4961 c -0.096,-0.448 -0.54297,-0.41601 -0.54297,-0.41601 h -3.77735 c 0,0 -0.44697,-0.032 -0.54297,0.41601 l -0.51171,2.4961 c 0,0 -0.0975,0.60937 -0.76954,0.60937 h -4.16015 c 0,0 -1.08728,0.0635 -0.86328,-0.89648 0,0 1.4087,-5.56872 2.7207,-11.136717 1.28,-5.376 2.4958,-10.783219 2.5918,-11.199219 0.192,-0.864 1.21484,-0.832031 1.21484,-0.832031 z m -107.06836,3.871094 0.0332,5.599609 c 0,0 3.00782,0.129391 3.00782,-2.974609 0,-2.784 -3.04102,-2.625 -3.04102,-2.625 z m 19.94727,0.384765 c -2.176,0 -3.51953,3.391391 -3.51953,7.775391 0,4.351997 1.27953,7.744137 3.51953,7.744137 2.304,0 3.48828,-3.39214 3.48828,-7.744137 0,-4.384 -1.31228,-7.775391 -3.48828,-7.775391 z m 31.5625,0 c -2.176,0 -3.51953,3.391391 -3.51953,7.775391 0,4.351997 1.27953,7.744137 3.51953,7.744137 2.304,0 3.48828,-3.39214 3.48828,-7.744137 0,-4.384 -1.31228,-7.775391 -3.48828,-7.775391 z m 57.76757,0.607422 -0.0312,0.0957 -1.50586,10.624999 c -0.096,0.703997 0.51367,0.638667 0.51367,0.638667 h 2.04687 c 0,0 0.60772,0.0653 0.51172,-0.638667 l -1.5352,-10.624996 z m -109.24414,8.736328 v 6.304678 c 0,0 3.55079,-0.0972 3.55079,-3.20117 0,-2.975992 -2.94279,-3.103508 -3.55079,-3.103508 z"
   id="rect77"
   inkscape:connector-curvature="0"
   style="fill:#1d1d1b" />
</g>
	</g>
</g>
</svg>